<svg xmlns="http://www.w3.org/2000/svg" xmlns:xlink="http://www.w3.org/1999/xlink" width="200" zoomAndPan="magnify" viewBox="0 0 150 149.999998" height="200" preserveAspectRatio="xMidYMid meet" version="1.0"><path fill="#1877f2" d="M 150 75 C 150 33.578125 116.421875 0 75 0 C 33.578125 0 0 33.578125 0 75 C 0 112.433594 27.425781 143.460938 63.28125 149.089844 L 63.28125 96.679688 L 44.238281 96.679688 L 44.238281 75 L 63.28125 75 L 63.28125 58.476562 C 63.28125 39.679688 74.476562 29.296875 91.609375 29.296875 C 99.816406 29.296875 108.398438 30.761719 108.398438 30.761719 L 108.398438 49.21875 L 98.941406 49.21875 C 89.625 49.21875 86.71875 55 86.71875 60.929688 L 86.71875 75 L 107.519531 75 L 104.195312 96.679688 L 86.71875 96.679688 L 86.71875 149.089844 C 122.574219 143.460938 150 112.433594 150 75 " fill-opacity="1" fill-rule="nonzero"/><path fill="#ffffff" d="M 104.195312 96.679688 L 107.519531 75 L 86.71875 75 L 86.71875 60.929688 C 86.71875 55 89.625 49.21875 98.941406 49.21875 L 108.398438 49.21875 L 108.398438 30.761719 C 108.398438 30.761719 99.816406 29.296875 91.609375 29.296875 C 74.476562 29.296875 63.28125 39.679688 63.28125 58.476562 L 63.28125 75 L 44.238281 75 L 44.238281 96.679688 L 63.28125 96.679688 L 63.28125 149.089844 C 67.097656 149.6875 71.011719 150 75 150 C 78.988281 150 82.902344 149.6875 86.71875 149.089844 L 86.71875 96.679688 L 104.195312 96.679688 " fill-opacity="1" fill-rule="nonzero"/></svg>