<svg xmlns="http://www.w3.org/2000/svg" xmlns:xlink="http://www.w3.org/1999/xlink" width="200" zoomAndPan="magnify" viewBox="0 0 150 149.999998" height="200" preserveAspectRatio="xMidYMid meet" version="1.0"><defs><clipPath id="eb05aea219"><path d="M 0.00390625 33.65625 L 150 33.65625 L 150 127.40625 L 0.00390625 127.40625 Z M 0.00390625 33.65625 " clip-rule="nonzero"/></clipPath><clipPath id="d859dc4810"><path d="M 111.554688 33.65625 C 132.785156 33.65625 149.996094 54.644531 149.996094 80.53125 C 149.996094 106.421875 132.785156 127.40625 111.554688 127.40625 L 38.445312 127.40625 C 17.214844 127.40625 0.00390625 106.421875 0.00390625 80.53125 C 0.00390625 54.644531 17.214844 33.65625 38.445312 33.65625 L 111.554688 33.65625 " clip-rule="nonzero"/></clipPath><clipPath id="b2fbb50ed0"><path d="M 31.753906 62.457031 L 45.21875 62.457031 L 45.21875 73.679688 L 31.753906 73.679688 Z M 20.53125 73.679688 L 56.4375 73.679688 L 56.4375 87.144531 L 20.53125 87.144531 Z M 31.753906 87.144531 L 45.21875 87.144531 L 45.21875 98.363281 L 31.753906 98.363281 Z M 31.753906 87.144531 " clip-rule="nonzero"/></clipPath><clipPath id="ca8d0a3db1"><path d="M 114.53125 67.332031 L 129.871094 67.332031 L 129.871094 82.667969 L 114.53125 82.667969 Z M 114.53125 67.332031 " clip-rule="nonzero"/></clipPath><clipPath id="b5d10dcc2e"><path d="M 122.199219 67.332031 C 117.964844 67.332031 114.53125 70.765625 114.53125 75 C 114.53125 79.234375 117.964844 82.667969 122.199219 82.667969 C 126.4375 82.667969 129.871094 79.234375 129.871094 75 C 129.871094 70.765625 126.4375 67.332031 122.199219 67.332031 " clip-rule="nonzero"/></clipPath><clipPath id="a84cfa0aa9"><path d="M 88.777344 86.488281 L 104.113281 86.488281 L 104.113281 101.824219 L 88.777344 101.824219 Z M 88.777344 86.488281 " clip-rule="nonzero"/></clipPath><clipPath id="e2a077bd0d"><path d="M 96.445312 86.488281 C 92.210938 86.488281 88.777344 89.921875 88.777344 94.15625 C 88.777344 98.390625 92.210938 101.824219 96.445312 101.824219 C 100.679688 101.824219 104.113281 98.390625 104.113281 94.15625 C 104.113281 89.921875 100.679688 86.488281 96.445312 86.488281 " clip-rule="nonzero"/></clipPath></defs><g clip-path="url(#eb05aea219)"><g clip-path="url(#d859dc4810)"><path stroke-linecap="butt" transform="matrix(0.75, 0, 0, 0.751974, 0.00230921, 33.657484)" fill="none" stroke-linejoin="miter" d="M 148.736513 -0.00164117 C 177.043806 -0.00164117 199.991724 27.909277 199.991724 62.3343 C 199.991724 96.764519 177.043806 124.670242 148.736513 124.670242 L 51.257341 124.670242 C 22.950047 124.670242 0.00212939 96.764519 0.00212939 62.3343 C 0.00212939 27.909277 22.950047 -0.00164117 51.257341 -0.00164117 L 148.736513 -0.00164117 " stroke="#d9d9d9" stroke-width="20" stroke-opacity="1" stroke-miterlimit="4"/></g></g><g clip-path="url(#b2fbb50ed0)"><path fill="#d9d9d9" d="M 20.53125 62.457031 L 56.4375 62.457031 L 56.4375 98.363281 L 20.53125 98.363281 Z M 20.53125 62.457031 " fill-opacity="1" fill-rule="nonzero"/></g><g clip-path="url(#ca8d0a3db1)"><g clip-path="url(#b5d10dcc2e)"><path fill="#d9d9d9" d="M 114.53125 67.332031 L 129.871094 67.332031 L 129.871094 82.667969 L 114.53125 82.667969 Z M 114.53125 67.332031 " fill-opacity="1" fill-rule="nonzero"/></g></g><g clip-path="url(#a84cfa0aa9)"><g clip-path="url(#e2a077bd0d)"><path fill="#d9d9d9" d="M 88.777344 86.488281 L 104.113281 86.488281 L 104.113281 101.824219 L 88.777344 101.824219 Z M 88.777344 86.488281 " fill-opacity="1" fill-rule="nonzero"/></g></g></svg>