<svg xmlns="http://www.w3.org/2000/svg" xmlns:xlink="http://www.w3.org/1999/xlink" width="200" zoomAndPan="magnify" viewBox="0 0 150 149.999998" height="200" preserveAspectRatio="xMidYMid meet" version="1.0"><defs><clipPath id="69a1b4bc78"><path d="M 17.535156 32.753906 L 132.285156 32.753906 L 132.285156 117.503906 L 17.535156 117.503906 Z M 17.535156 32.753906 " clip-rule="nonzero"/></clipPath><clipPath id="9a6565dc8b"><path d="M 3.039062 6.078125 L 147.039062 6.078125 L 147.039062 150 L 3.039062 150 Z M 3.039062 6.078125 " clip-rule="nonzero"/></clipPath><clipPath id="cefd76eb39"><path d="M 75.039062 6.078125 C 35.273438 6.078125 3.039062 38.3125 3.039062 78.078125 C 3.039062 117.839844 35.273438 150.078125 75.039062 150.078125 C 114.800781 150.078125 147.039062 117.839844 147.039062 78.078125 C 147.039062 38.3125 114.800781 6.078125 75.039062 6.078125 " clip-rule="nonzero"/></clipPath></defs><g clip-path="url(#69a1b4bc78)"><path fill="#d9d9d9" d="M 74.289062 155.746094 C 54.253906 155.746094 35.421875 147.945312 21.253906 133.78125 C 7.089844 119.613281 -0.710938 100.78125 -0.710938 80.746094 C -0.710938 60.714844 7.089844 41.878906 21.253906 27.714844 C 35.421875 13.550781 54.253906 5.75 74.289062 5.75 C 94.320312 5.75 113.152344 13.550781 127.320312 27.714844 C 141.484375 41.878906 149.285156 60.714844 149.285156 80.746094 C 149.285156 100.78125 141.484375 119.613281 127.320312 133.78125 C 113.152344 147.945312 94.320312 155.746094 74.289062 155.746094 Z M 74.289062 10.605469 C 55.550781 10.605469 37.9375 17.898438 24.6875 31.148438 C 11.441406 44.398438 4.144531 62.011719 4.144531 80.746094 C 4.144531 99.484375 11.441406 117.097656 24.6875 130.347656 C 37.9375 143.59375 55.550781 150.890625 74.289062 150.890625 C 93.023438 150.890625 110.636719 143.59375 123.886719 130.347656 C 137.136719 117.097656 144.429688 99.484375 144.429688 80.746094 C 144.429688 62.011719 137.136719 44.398438 123.886719 31.148438 C 110.636719 17.898438 93.023438 10.605469 74.289062 10.605469 Z M 74.289062 71.027344 C 66.488281 71.027344 60.140625 62.863281 60.140625 52.828125 C 60.140625 42.789062 66.488281 34.625 74.289062 34.625 C 82.085938 34.625 88.433594 42.789062 88.433594 52.828125 C 88.433594 62.863281 82.085938 71.027344 74.289062 71.027344 Z M 41.136719 75.042969 C 38.246094 75.042969 35.527344 73.644531 33.449219 71.070312 C 31.457031 68.597656 30.277344 65.292969 30.136719 61.761719 C 29.996094 58.226562 30.902344 54.839844 32.691406 52.214844 C 34.632812 49.371094 37.371094 47.734375 40.394531 47.613281 C 43.421875 47.492188 46.28125 48.902344 48.445312 51.582031 C 50.4375 54.054688 51.613281 57.359375 51.757812 60.890625 C 51.898438 64.421875 50.992188 67.8125 49.203125 70.4375 C 47.257812 73.28125 44.523438 74.914062 41.496094 75.039062 C 41.378906 75.042969 41.257812 75.042969 41.136719 75.042969 Z M 107.4375 75.042969 C 107.316406 75.042969 107.199219 75.042969 107.078125 75.039062 C 104.050781 74.914062 101.316406 73.28125 99.375 70.4375 C 97.582031 67.8125 96.675781 64.421875 96.816406 60.890625 C 96.960938 57.359375 98.136719 54.054688 100.132812 51.582031 C 102.292969 48.902344 105.144531 47.496094 108.179688 47.613281 C 111.203125 47.734375 113.941406 49.371094 115.882812 52.214844 C 117.671875 54.839844 118.578125 58.226562 118.4375 61.761719 C 118.296875 65.292969 117.117188 68.597656 115.125 71.070312 C 113.046875 73.644531 110.328125 75.042969 107.4375 75.042969 Z M 99.246094 60.988281 Z M 94.984375 114.332031 L 54.390625 114.332031 C 47.003906 114.332031 40.992188 108.320312 40.992188 100.933594 C 40.992188 94.195312 45.5 87.269531 53.6875 81.429688 C 59.355469 77.386719 66.71875 75.144531 74.417969 75.113281 C 82.257812 75.074219 89.800781 77.378906 95.644531 81.578125 C 98.429688 83.578125 107.519531 90.890625 107.578125 100.917969 C 107.589844 102.726562 107.617188 106.964844 104.394531 110.4375 C 101.152344 113.929688 96.742188 114.324219 94.992188 114.332031 C 94.992188 114.332031 94.988281 114.332031 94.984375 114.332031 Z M 38.429688 108.96875 L 29.453125 108.96875 C 28.199219 108.96875 25 108.6875 22.339844 106.066406 C 20.4375 104.191406 19.390625 101.699219 19.390625 99.050781 C 19.390625 95.695312 20.863281 92.335938 23.765625 89.074219 C 25.449219 87.175781 27.269531 85.582031 29.164062 84.34375 C 33.230469 81.691406 37.9375 80.113281 43.15625 79.660156 L 47.875 79.25 L 44.347656 82.367188 C 42.117188 84.335938 39.128906 87.742188 37.554688 92.800781 C 35.640625 98.929688 36.851562 104.28125 37.742188 106.925781 Z M 119.121094 108.96875 L 110.144531 108.96875 L 110.835938 106.925781 C 111.722656 104.28125 112.933594 98.929688 111.019531 92.800781 C 109.445312 87.742188 106.457031 84.335938 104.226562 82.367188 L 100.699219 79.25 L 105.417969 79.660156 C 110.636719 80.113281 115.34375 81.691406 119.410156 84.34375 C 121.308594 85.582031 123.125 87.175781 124.8125 89.074219 C 127.710938 92.335938 129.183594 95.695312 129.183594 99.050781 C 129.183594 101.699219 128.136719 104.191406 126.238281 106.066406 C 123.578125 108.6875 120.375 108.96875 119.121094 108.96875 Z M 119.121094 108.96875 " fill-opacity="1" fill-rule="nonzero"/></g><g clip-path="url(#9a6565dc8b)"><g clip-path="url(#cefd76eb39)"><path stroke-linecap="butt" transform="matrix(0.750427, 0, 0, 0.750427, 3.03825, 6.0765)" fill="none" stroke-linejoin="miter" d="M 95.946407 0.00216484 C 42.955771 0.00216484 0.00108215 42.956853 0.00108215 95.947489 C 0.00108215 148.93292 42.955771 191.892814 95.946407 191.892814 C 148.937043 191.892814 191.891731 148.93292 191.891731 95.947489 C 191.891731 42.956853 148.937043 0.00216484 95.946407 0.00216484 " stroke="#d9d9d9" stroke-width="20" stroke-opacity="1" stroke-miterlimit="4"/></g></g></svg>