<svg xmlns="http://www.w3.org/2000/svg" xmlns:xlink="http://www.w3.org/1999/xlink" width="200" zoomAndPan="magnify" viewBox="0 0 150 149.999998" height="200" preserveAspectRatio="xMidYMid meet" version="1.0"><defs><clipPath id="cba5a3a8bf"><path d="M 0.191406 10.96875 L 149.8125 10.96875 L 149.8125 139.210938 L 0.191406 139.210938 Z M 0.191406 10.96875 " clip-rule="nonzero"/></clipPath></defs><g clip-path="url(#cba5a3a8bf)"><path fill="#1877f2" d="M 145.417969 76.9375 L 133.085938 76.9375 C 130.171875 76.9375 127.8125 79.4375 127.8125 82.519531 L 127.8125 133.628906 C 127.8125 136.710938 125.453125 139.210938 122.539062 139.210938 L 96.085938 139.210938 C 93.175781 139.210938 90.8125 136.710938 90.8125 133.628906 L 90.8125 104.09375 C 90.8125 101.007812 88.453125 98.507812 85.539062 98.507812 L 64.464844 98.507812 C 61.550781 98.507812 59.191406 101.007812 59.191406 104.09375 L 59.191406 133.628906 C 59.191406 136.710938 56.828125 139.210938 53.917969 139.210938 L 27.464844 139.210938 C 24.554688 139.210938 22.191406 136.710938 22.191406 133.628906 L 22.191406 82.519531 C 22.191406 79.4375 19.832031 76.9375 16.917969 76.9375 L 4.585938 76.9375 C 0.542969 76.9375 -1.347656 72.273438 1.6875 69.78125 L 72.101562 11.988281 C 73.761719 10.628906 76.246094 10.628906 77.902344 11.988281 L 148.316406 69.78125 C 151.351562 72.273438 149.460938 76.9375 145.417969 76.9375 " fill-opacity="1" fill-rule="nonzero"/></g></svg>