<svg xmlns="http://www.w3.org/2000/svg" xmlns:xlink="http://www.w3.org/1999/xlink" width="200" zoomAndPan="magnify" viewBox="0 0 150 149.999998" height="200" preserveAspectRatio="xMidYMid meet" version="1.0"><defs><clipPath id="998a2e4a78"><path d="M 5.523438 15.035156 L 146.523438 15.035156 L 146.523438 149.925781 L 5.523438 149.925781 Z M 5.523438 15.035156 " clip-rule="nonzero"/></clipPath></defs><g clip-path="url(#998a2e4a78)"><path fill="#d9d9d9" d="M 130.097656 76.339844 C 125.515625 76.339844 121.988281 72.585938 121.988281 68.207031 C 121.988281 65.910156 120.109375 64.039062 117.820312 64.039062 L 115.328125 64.039062 C 113.035156 64.039062 111.171875 65.910156 111.171875 68.207031 C 111.171875 72.800781 107.429688 76.339844 103.058594 76.339844 C 98.691406 76.339844 94.949219 72.585938 94.949219 68.207031 C 94.949219 65.910156 93.082031 64.039062 90.792969 64.039062 L 88.300781 64.039062 C 86.011719 64.039062 84.132812 65.910156 84.132812 68.207031 C 84.132812 72.800781 80.390625 76.339844 76.023438 76.339844 C 71.652344 76.339844 67.910156 72.585938 67.910156 68.207031 C 67.910156 65.910156 66.046875 64.039062 63.753906 64.039062 L 61.261719 64.039062 C 58.972656 64.039062 57.109375 65.910156 57.109375 68.207031 C 57.109375 72.800781 53.363281 76.339844 48.996094 76.339844 C 44.628906 76.339844 40.882812 72.585938 40.882812 68.207031 C 40.882812 65.910156 39.007812 64.039062 36.730469 64.039062 L 34.226562 64.039062 C 31.933594 64.039062 30.070312 65.910156 30.070312 68.207031 C 30.070312 72.800781 26.328125 76.339844 21.957031 76.339844 C 17.589844 76.339844 13.847656 72.585938 13.847656 68.207031 L 13.847656 60.902344 L 138.210938 60.902344 L 138.210938 68.207031 C 138.210938 72.800781 134.667969 76.339844 130.097656 76.339844 Z M 122.8125 141.792969 L 97.867188 141.792969 L 97.867188 104.273438 C 97.867188 99.265625 94.121094 95.3125 89.339844 95.3125 L 62.714844 95.3125 C 57.933594 95.3125 54.191406 99.265625 54.191406 104.273438 L 54.191406 141.792969 L 29.230469 141.792969 C 27.566406 141.792969 26.113281 140.339844 26.113281 138.667969 L 26.113281 84.257812 C 30.070312 83.214844 33.1875 80.917969 35.464844 77.792969 C 38.382812 82.171875 43.375 84.882812 48.984375 84.882812 C 54.605469 84.882812 59.597656 81.972656 62.503906 77.792969 C 65.417969 82.171875 70.402344 84.882812 76.023438 84.882812 C 81.640625 84.882812 86.625 81.972656 89.542969 77.792969 C 92.457031 82.171875 97.441406 84.882812 103.046875 84.882812 C 108.667969 84.882812 113.664062 81.972656 116.578125 77.792969 C 118.859375 80.917969 122.1875 83.429688 125.929688 84.257812 L 125.929688 138.667969 C 125.929688 140.339844 124.476562 141.792969 122.8125 141.792969 Z M 89.542969 141.792969 L 62.503906 141.792969 L 62.503906 104.273438 C 62.503906 103.859375 62.714844 103.644531 62.714844 103.644531 L 89.328125 103.644531 C 89.328125 103.644531 89.542969 103.859375 89.542969 104.273438 Z M 30.894531 23.382812 L 121.148438 23.382812 L 135.292969 51.742188 L 16.75 51.742188 Z M 145.070312 52.785156 L 127.394531 17.332031 C 126.769531 15.878906 125.316406 15.050781 123.640625 15.050781 L 28.390625 15.035156 C 26.738281 15.035156 25.273438 15.878906 24.660156 17.332031 L 6.972656 52.785156 C 6.148438 53.613281 5.523438 54.652344 5.523438 55.910156 L 5.523438 68.207031 C 5.523438 75.925781 10.71875 82.386719 17.789062 84.042969 L 17.789062 138.457031 C 17.789062 144.917969 22.984375 149.925781 29.230469 149.925781 L 122.8125 149.925781 C 129.261719 149.925781 134.253906 144.71875 134.253906 138.457031 L 134.253906 84.257812 C 141.328125 82.386719 146.523438 75.925781 146.523438 68.421875 L 146.523438 56.121094 C 146.523438 54.652344 145.894531 53.410156 145.070312 52.785156 " fill-opacity="1" fill-rule="nonzero"/></g></svg>