<svg xmlns="http://www.w3.org/2000/svg" xmlns:xlink="http://www.w3.org/1999/xlink" width="200" zoomAndPan="magnify" viewBox="0 0 150 149.999998" height="200" preserveAspectRatio="xMidYMid meet" version="1.0"><defs><clipPath id="a77e075801"><path d="M 0 0 L 42.75 0 L 42.75 150 L 0 150 Z M 0 0 " clip-rule="nonzero"/></clipPath><clipPath id="5c269e12c1"><path d="M 53.53125 0 L 96.28125 0 L 96.28125 150 L 53.53125 150 Z M 53.53125 0 " clip-rule="nonzero"/></clipPath><clipPath id="d0f1ae5178"><path d="M 107.0625 0 L 149.8125 0 L 149.8125 150 L 107.0625 150 Z M 107.0625 0 " clip-rule="nonzero"/></clipPath></defs><g clip-path="url(#a77e075801)"><path fill="#d9d9d9" d="M 42.710938 75 C 42.710938 75.703125 42.675781 76.402344 42.605469 77.101562 C 42.539062 77.796875 42.4375 78.492188 42.300781 79.179688 C 42.164062 79.867188 41.996094 80.546875 41.792969 81.21875 C 41.589844 81.890625 41.351562 82.550781 41.085938 83.199219 C 40.820312 83.847656 40.519531 84.480469 40.191406 85.101562 C 39.863281 85.71875 39.503906 86.320312 39.113281 86.90625 C 38.726562 87.488281 38.308594 88.050781 37.867188 88.59375 C 37.425781 89.136719 36.957031 89.65625 36.460938 90.152344 C 35.96875 90.648438 35.449219 91.121094 34.910156 91.566406 C 34.371094 92.007812 33.808594 92.425781 33.226562 92.816406 C 32.648438 93.207031 32.046875 93.566406 31.433594 93.898438 C 30.816406 94.230469 30.183594 94.527344 29.539062 94.796875 C 28.894531 95.066406 28.238281 95.300781 27.566406 95.503906 C 26.898438 95.710938 26.222656 95.878906 25.539062 96.015625 C 24.851562 96.152344 24.160156 96.257812 23.464844 96.324219 C 22.769531 96.394531 22.074219 96.429688 21.375 96.429688 C 20.675781 96.429688 19.980469 96.394531 19.285156 96.324219 C 18.589844 96.257812 17.898438 96.152344 17.210938 96.015625 C 16.527344 95.878906 15.851562 95.710938 15.183594 95.503906 C 14.511719 95.300781 13.855469 95.066406 13.210938 94.796875 C 12.566406 94.527344 11.933594 94.230469 11.316406 93.898438 C 10.703125 93.566406 10.101562 93.207031 9.523438 92.816406 C 8.941406 92.425781 8.378906 92.007812 7.839844 91.566406 C 7.300781 91.121094 6.78125 90.648438 6.289062 90.152344 C 5.792969 89.65625 5.324219 89.136719 4.882812 88.59375 C 4.441406 88.050781 4.023438 87.488281 3.636719 86.90625 C 3.246094 86.320312 2.886719 85.71875 2.558594 85.101562 C 2.230469 84.480469 1.929688 83.847656 1.664062 83.199219 C 1.398438 82.550781 1.160156 81.890625 0.957031 81.21875 C 0.753906 80.546875 0.585938 79.867188 0.449219 79.179688 C 0.3125 78.492188 0.210938 77.796875 0.144531 77.101562 C 0.0742188 76.402344 0.0390625 75.703125 0.0390625 75 C 0.0390625 74.296875 0.0742188 73.597656 0.144531 72.898438 C 0.210938 72.203125 0.3125 71.507812 0.449219 70.820312 C 0.585938 70.132812 0.753906 69.453125 0.957031 68.78125 C 1.160156 68.109375 1.398438 67.449219 1.664062 66.800781 C 1.929688 66.152344 2.230469 65.515625 2.558594 64.898438 C 2.886719 64.28125 3.246094 63.679688 3.636719 63.09375 C 4.023438 62.511719 4.441406 61.949219 4.882812 61.40625 C 5.324219 60.863281 5.792969 60.34375 6.289062 59.847656 C 6.78125 59.351562 7.300781 58.878906 7.839844 58.433594 C 8.378906 57.992188 8.941406 57.574219 9.523438 57.183594 C 10.101562 56.792969 10.703125 56.433594 11.316406 56.101562 C 11.933594 55.769531 12.566406 55.472656 13.210938 55.203125 C 13.855469 54.933594 14.511719 54.699219 15.183594 54.492188 C 15.851562 54.289062 16.527344 54.121094 17.210938 53.984375 C 17.898438 53.847656 18.589844 53.742188 19.285156 53.675781 C 19.980469 53.605469 20.675781 53.570312 21.375 53.570312 C 22.074219 53.570312 22.769531 53.605469 23.464844 53.675781 C 24.160156 53.742188 24.851562 53.847656 25.539062 53.984375 C 26.222656 54.121094 26.898438 54.289062 27.566406 54.492188 C 28.238281 54.699219 28.894531 54.933594 29.539062 55.203125 C 30.183594 55.472656 30.816406 55.769531 31.433594 56.101562 C 32.046875 56.433594 32.648438 56.792969 33.226562 57.183594 C 33.808594 57.574219 34.371094 57.992188 34.910156 58.433594 C 35.449219 58.878906 35.96875 59.351562 36.460938 59.847656 C 36.957031 60.34375 37.425781 60.863281 37.867188 61.40625 C 38.308594 61.949219 38.726562 62.511719 39.113281 63.09375 C 39.503906 63.679688 39.863281 64.28125 40.191406 64.898438 C 40.519531 65.515625 40.820312 66.152344 41.085938 66.800781 C 41.351562 67.449219 41.589844 68.109375 41.792969 68.78125 C 41.996094 69.453125 42.164062 70.132812 42.300781 70.820312 C 42.4375 71.507812 42.539062 72.203125 42.605469 72.898438 C 42.675781 73.597656 42.710938 74.296875 42.710938 75 Z M 21.375 0 C 20.675781 0 19.980469 0.0351562 19.285156 0.101562 C 18.589844 0.171875 17.898438 0.273438 17.210938 0.410156 C 16.527344 0.546875 15.851562 0.71875 15.183594 0.921875 C 14.511719 1.125 13.855469 1.363281 13.210938 1.632812 C 12.566406 1.898438 11.933594 2.199219 11.316406 2.53125 C 10.703125 2.859375 10.101562 3.222656 9.523438 3.613281 C 8.941406 4 8.378906 4.417969 7.839844 4.863281 C 7.300781 5.308594 6.78125 5.78125 6.289062 6.277344 C 5.792969 6.773438 5.324219 7.292969 4.882812 7.835938 C 4.441406 8.375 4.023438 8.941406 3.636719 9.523438 C 3.246094 10.105469 2.886719 10.707031 2.558594 11.328125 C 2.230469 11.945312 1.929688 12.578125 1.664062 13.226562 C 1.398438 13.875 1.160156 14.535156 0.957031 15.207031 C 0.753906 15.878906 0.585938 16.558594 0.449219 17.25 C 0.3125 17.9375 0.210938 18.628906 0.144531 19.328125 C 0.0742188 20.027344 0.0390625 20.726562 0.0390625 21.429688 C 0.0390625 22.128906 0.0742188 22.832031 0.144531 23.527344 C 0.210938 24.226562 0.3125 24.921875 0.449219 25.609375 C 0.585938 26.296875 0.753906 26.976562 0.957031 27.648438 C 1.160156 28.320312 1.398438 28.980469 1.664062 29.628906 C 1.929688 30.277344 2.230469 30.910156 2.558594 31.53125 C 2.886719 32.148438 3.246094 32.75 3.636719 33.332031 C 4.023438 33.917969 4.441406 34.480469 4.882812 35.023438 C 5.324219 35.566406 5.792969 36.085938 6.289062 36.582031 C 6.78125 37.078125 7.300781 37.546875 7.839844 37.992188 C 8.378906 38.4375 8.941406 38.855469 9.523438 39.246094 C 10.101562 39.636719 10.703125 39.996094 11.316406 40.328125 C 11.933594 40.65625 12.566406 40.957031 13.210938 41.226562 C 13.855469 41.496094 14.511719 41.730469 15.183594 41.933594 C 15.851562 42.136719 16.527344 42.308594 17.210938 42.445312 C 17.898438 42.582031 18.589844 42.683594 19.285156 42.753906 C 19.980469 42.824219 20.675781 42.855469 21.375 42.855469 C 22.074219 42.855469 22.769531 42.824219 23.464844 42.753906 C 24.160156 42.683594 24.851562 42.582031 25.539062 42.445312 C 26.222656 42.308594 26.898438 42.136719 27.566406 41.933594 C 28.238281 41.730469 28.894531 41.496094 29.539062 41.226562 C 30.183594 40.957031 30.816406 40.65625 31.433594 40.328125 C 32.046875 39.996094 32.648438 39.636719 33.226562 39.246094 C 33.808594 38.855469 34.371094 38.4375 34.910156 37.992188 C 35.449219 37.546875 35.96875 37.078125 36.460938 36.582031 C 36.957031 36.085938 37.425781 35.566406 37.867188 35.023438 C 38.308594 34.480469 38.726562 33.917969 39.113281 33.332031 C 39.503906 32.75 39.863281 32.148438 40.191406 31.53125 C 40.519531 30.910156 40.820312 30.277344 41.085938 29.628906 C 41.351562 28.980469 41.589844 28.320312 41.792969 27.648438 C 41.996094 26.976562 42.164062 26.296875 42.300781 25.609375 C 42.4375 24.921875 42.539062 24.226562 42.605469 23.527344 C 42.675781 22.832031 42.710938 22.128906 42.710938 21.429688 C 42.710938 20.726562 42.675781 20.027344 42.605469 19.328125 C 42.539062 18.628906 42.4375 17.9375 42.300781 17.25 C 42.164062 16.558594 41.996094 15.878906 41.792969 15.207031 C 41.589844 14.535156 41.351562 13.875 41.085938 13.226562 C 40.820312 12.578125 40.519531 11.945312 40.191406 11.328125 C 39.863281 10.707031 39.503906 10.105469 39.113281 9.523438 C 38.726562 8.941406 38.308594 8.375 37.867188 7.835938 C 37.425781 7.292969 36.957031 6.773438 36.460938 6.277344 C 35.96875 5.78125 35.449219 5.308594 34.910156 4.863281 C 34.371094 4.417969 33.808594 4 33.226562 3.613281 C 32.648438 3.222656 32.046875 2.859375 31.433594 2.53125 C 30.816406 2.199219 30.183594 1.898438 29.539062 1.632812 C 28.894531 1.363281 28.238281 1.125 27.566406 0.921875 C 26.898438 0.71875 26.222656 0.546875 25.539062 0.410156 C 24.851562 0.273438 24.160156 0.171875 23.464844 0.101562 C 22.769531 0.0351562 22.074219 0 21.375 0 Z M 21.375 107.144531 C 20.675781 107.144531 19.980469 107.175781 19.285156 107.246094 C 18.589844 107.316406 17.898438 107.417969 17.210938 107.554688 C 16.527344 107.691406 15.851562 107.863281 15.183594 108.066406 C 14.511719 108.269531 13.855469 108.503906 13.210938 108.773438 C 12.566406 109.042969 11.933594 109.34375 11.316406 109.671875 C 10.703125 110.003906 10.101562 110.363281 9.523438 110.753906 C 8.941406 111.144531 8.378906 111.5625 7.839844 112.007812 C 7.300781 112.453125 6.78125 112.921875 6.289062 113.417969 C 5.792969 113.914062 5.324219 114.433594 4.882812 114.976562 C 4.441406 115.519531 4.023438 116.082031 3.636719 116.667969 C 3.246094 117.25 2.886719 117.851562 2.558594 118.46875 C 2.230469 119.089844 1.929688 119.722656 1.664062 120.371094 C 1.398438 121.019531 1.160156 121.679688 0.957031 122.351562 C 0.753906 123.023438 0.585938 123.703125 0.449219 124.390625 C 0.3125 125.078125 0.210938 125.773438 0.144531 126.472656 C 0.0742188 127.167969 0.0390625 127.871094 0.0390625 128.570312 C 0.0390625 129.273438 0.0742188 129.972656 0.144531 130.671875 C 0.210938 131.371094 0.3125 132.0625 0.449219 132.75 C 0.585938 133.441406 0.753906 134.121094 0.957031 134.792969 C 1.160156 135.464844 1.398438 136.125 1.664062 136.773438 C 1.929688 137.421875 2.230469 138.054688 2.558594 138.671875 C 2.886719 139.292969 3.246094 139.894531 3.636719 140.476562 C 4.023438 141.058594 4.441406 141.625 4.882812 142.164062 C 5.324219 142.707031 5.792969 143.226562 6.289062 143.722656 C 6.78125 144.21875 7.300781 144.691406 7.839844 145.136719 C 8.378906 145.582031 8.941406 146 9.523438 146.386719 C 10.101562 146.777344 10.703125 147.140625 11.316406 147.46875 C 11.933594 147.800781 12.566406 148.101562 13.210938 148.367188 C 13.855469 148.636719 14.511719 148.875 15.183594 149.078125 C 15.851562 149.28125 16.527344 149.453125 17.210938 149.589844 C 17.898438 149.726562 18.589844 149.828125 19.285156 149.898438 C 19.980469 149.964844 20.675781 150 21.375 150 C 22.074219 150 22.769531 149.964844 23.464844 149.898438 C 24.160156 149.828125 24.851562 149.726562 25.539062 149.589844 C 26.222656 149.453125 26.898438 149.28125 27.566406 149.078125 C 28.238281 148.875 28.894531 148.636719 29.539062 148.367188 C 30.183594 148.101562 30.816406 147.800781 31.433594 147.46875 C 32.046875 147.140625 32.648438 146.777344 33.226562 146.386719 C 33.808594 146 34.371094 145.582031 34.910156 145.136719 C 35.449219 144.691406 35.96875 144.21875 36.460938 143.722656 C 36.957031 143.226562 37.425781 142.707031 37.867188 142.164062 C 38.308594 141.625 38.726562 141.058594 39.113281 140.476562 C 39.503906 139.894531 39.863281 139.292969 40.191406 138.671875 C 40.519531 138.054688 40.820312 137.421875 41.085938 136.773438 C 41.351562 136.125 41.589844 135.464844 41.792969 134.792969 C 41.996094 134.121094 42.164062 133.441406 42.300781 132.75 C 42.4375 132.0625 42.539062 131.371094 42.605469 130.671875 C 42.675781 129.972656 42.710938 129.273438 42.710938 128.570312 C 42.710938 127.871094 42.675781 127.167969 42.605469 126.472656 C 42.539062 125.773438 42.4375 125.078125 42.300781 124.390625 C 42.164062 123.703125 41.996094 123.023438 41.792969 122.351562 C 41.589844 121.679688 41.351562 121.019531 41.085938 120.371094 C 40.820312 119.722656 40.519531 119.089844 40.191406 118.46875 C 39.863281 117.851562 39.503906 117.25 39.113281 116.667969 C 38.726562 116.082031 38.308594 115.519531 37.867188 114.976562 C 37.425781 114.433594 36.957031 113.914062 36.460938 113.417969 C 35.96875 112.921875 35.449219 112.453125 34.910156 112.007812 C 34.371094 111.5625 33.808594 111.144531 33.226562 110.753906 C 32.648438 110.363281 32.046875 110.003906 31.433594 109.671875 C 30.816406 109.34375 30.183594 109.042969 29.539062 108.773438 C 28.894531 108.503906 28.238281 108.269531 27.566406 108.066406 C 26.898438 107.863281 26.222656 107.691406 25.539062 107.554688 C 24.851562 107.417969 24.160156 107.316406 23.464844 107.246094 C 22.769531 107.175781 22.074219 107.144531 21.375 107.144531 Z M 21.375 107.144531 " fill-opacity="1" fill-rule="nonzero"/></g><g clip-path="url(#5c269e12c1)"><path fill="#d9d9d9" d="M 96.242188 75 C 96.242188 75.703125 96.207031 76.402344 96.136719 77.101562 C 96.070312 77.796875 95.96875 78.492188 95.832031 79.179688 C 95.695312 79.867188 95.523438 80.546875 95.324219 81.21875 C 95.121094 81.890625 94.882812 82.550781 94.617188 83.199219 C 94.351562 83.847656 94.050781 84.480469 93.722656 85.101562 C 93.394531 85.71875 93.035156 86.320312 92.644531 86.90625 C 92.257812 87.488281 91.839844 88.050781 91.398438 88.59375 C 90.957031 89.136719 90.488281 89.65625 89.992188 90.152344 C 89.5 90.648438 88.980469 91.121094 88.441406 91.566406 C 87.902344 92.007812 87.339844 92.425781 86.757812 92.816406 C 86.179688 93.207031 85.578125 93.566406 84.964844 93.898438 C 84.347656 94.230469 83.714844 94.527344 83.070312 94.796875 C 82.425781 95.066406 81.769531 95.300781 81.097656 95.503906 C 80.429688 95.710938 79.753906 95.878906 79.070312 96.015625 C 78.382812 96.152344 77.691406 96.257812 76.996094 96.324219 C 76.300781 96.394531 75.605469 96.429688 74.90625 96.429688 C 74.207031 96.429688 73.511719 96.394531 72.816406 96.324219 C 72.121094 96.257812 71.429688 96.152344 70.742188 96.015625 C 70.058594 95.878906 69.382812 95.710938 68.714844 95.503906 C 68.042969 95.300781 67.386719 95.066406 66.742188 94.796875 C 66.097656 94.527344 65.464844 94.230469 64.847656 93.898438 C 64.234375 93.566406 63.632812 93.207031 63.054688 92.816406 C 62.472656 92.425781 61.910156 92.007812 61.371094 91.566406 C 60.832031 91.121094 60.3125 90.648438 59.820312 90.152344 C 59.324219 89.65625 58.855469 89.136719 58.414062 88.59375 C 57.972656 88.050781 57.554688 87.488281 57.167969 86.90625 C 56.777344 86.320312 56.417969 85.71875 56.089844 85.101562 C 55.761719 84.480469 55.460938 83.847656 55.195312 83.199219 C 54.929688 82.550781 54.691406 81.890625 54.488281 81.21875 C 54.285156 80.546875 54.117188 79.867188 53.980469 79.179688 C 53.84375 78.492188 53.742188 77.796875 53.675781 77.101562 C 53.605469 76.402344 53.570312 75.703125 53.570312 75 C 53.570312 74.296875 53.605469 73.597656 53.675781 72.898438 C 53.742188 72.203125 53.84375 71.507812 53.980469 70.820312 C 54.117188 70.132812 54.285156 69.453125 54.488281 68.78125 C 54.691406 68.109375 54.929688 67.449219 55.195312 66.800781 C 55.460938 66.152344 55.761719 65.515625 56.089844 64.898438 C 56.417969 64.28125 56.777344 63.679688 57.167969 63.09375 C 57.554688 62.511719 57.972656 61.949219 58.414062 61.40625 C 58.855469 60.863281 59.324219 60.34375 59.820312 59.847656 C 60.3125 59.351562 60.832031 58.878906 61.371094 58.433594 C 61.910156 57.992188 62.472656 57.574219 63.054688 57.183594 C 63.632812 56.792969 64.234375 56.433594 64.847656 56.101562 C 65.464844 55.769531 66.097656 55.472656 66.742188 55.203125 C 67.386719 54.933594 68.042969 54.699219 68.714844 54.492188 C 69.382812 54.289062 70.058594 54.121094 70.742188 53.984375 C 71.429688 53.847656 72.121094 53.742188 72.816406 53.675781 C 73.511719 53.605469 74.207031 53.570312 74.90625 53.570312 C 75.605469 53.570312 76.300781 53.605469 76.996094 53.675781 C 77.691406 53.742188 78.382812 53.847656 79.070312 53.984375 C 79.753906 54.121094 80.429688 54.289062 81.097656 54.492188 C 81.769531 54.699219 82.425781 54.933594 83.070312 55.203125 C 83.714844 55.472656 84.347656 55.769531 84.964844 56.101562 C 85.578125 56.433594 86.179688 56.792969 86.757812 57.183594 C 87.339844 57.574219 87.902344 57.992188 88.441406 58.433594 C 88.980469 58.878906 89.5 59.351562 89.992188 59.847656 C 90.488281 60.34375 90.957031 60.863281 91.398438 61.40625 C 91.839844 61.949219 92.257812 62.511719 92.644531 63.09375 C 93.035156 63.679688 93.394531 64.28125 93.722656 64.898438 C 94.050781 65.515625 94.351562 66.152344 94.617188 66.800781 C 94.882812 67.449219 95.121094 68.109375 95.324219 68.78125 C 95.523438 69.453125 95.695312 70.132812 95.832031 70.820312 C 95.96875 71.507812 96.070312 72.203125 96.136719 72.898438 C 96.207031 73.597656 96.242188 74.296875 96.242188 75 Z M 74.90625 0 C 74.207031 0 73.511719 0.0351562 72.816406 0.101562 C 72.121094 0.171875 71.429688 0.273438 70.742188 0.410156 C 70.058594 0.546875 69.382812 0.71875 68.714844 0.921875 C 68.042969 1.125 67.386719 1.363281 66.742188 1.632812 C 66.097656 1.898438 65.464844 2.199219 64.847656 2.53125 C 64.234375 2.859375 63.632812 3.222656 63.054688 3.613281 C 62.472656 4 61.910156 4.417969 61.371094 4.863281 C 60.832031 5.308594 60.3125 5.78125 59.820312 6.277344 C 59.324219 6.773438 58.855469 7.292969 58.414062 7.835938 C 57.972656 8.375 57.554688 8.941406 57.167969 9.523438 C 56.777344 10.105469 56.417969 10.707031 56.089844 11.328125 C 55.761719 11.945312 55.460938 12.578125 55.195312 13.226562 C 54.929688 13.875 54.691406 14.535156 54.488281 15.207031 C 54.285156 15.878906 54.117188 16.558594 53.980469 17.25 C 53.84375 17.9375 53.742188 18.628906 53.675781 19.328125 C 53.605469 20.027344 53.570312 20.726562 53.570312 21.429688 C 53.570312 22.128906 53.605469 22.832031 53.675781 23.527344 C 53.742188 24.226562 53.84375 24.921875 53.980469 25.609375 C 54.117188 26.296875 54.285156 26.976562 54.488281 27.648438 C 54.691406 28.320312 54.929688 28.980469 55.195312 29.628906 C 55.460938 30.277344 55.761719 30.910156 56.089844 31.53125 C 56.417969 32.148438 56.777344 32.75 57.167969 33.332031 C 57.554688 33.917969 57.972656 34.480469 58.414062 35.023438 C 58.855469 35.566406 59.324219 36.085938 59.820312 36.582031 C 60.3125 37.078125 60.832031 37.546875 61.371094 37.992188 C 61.910156 38.4375 62.472656 38.855469 63.054688 39.246094 C 63.632812 39.636719 64.234375 39.996094 64.847656 40.328125 C 65.464844 40.65625 66.097656 40.957031 66.742188 41.226562 C 67.386719 41.496094 68.042969 41.730469 68.714844 41.933594 C 69.382812 42.136719 70.058594 42.308594 70.742188 42.445312 C 71.429688 42.582031 72.121094 42.683594 72.816406 42.753906 C 73.511719 42.824219 74.207031 42.855469 74.90625 42.855469 C 75.605469 42.855469 76.300781 42.824219 76.996094 42.753906 C 77.691406 42.683594 78.382812 42.582031 79.070312 42.445312 C 79.753906 42.308594 80.429688 42.136719 81.097656 41.933594 C 81.769531 41.730469 82.425781 41.496094 83.070312 41.226562 C 83.714844 40.957031 84.347656 40.65625 84.964844 40.328125 C 85.578125 39.996094 86.179688 39.636719 86.757812 39.246094 C 87.339844 38.855469 87.902344 38.4375 88.441406 37.992188 C 88.980469 37.546875 89.5 37.078125 89.992188 36.582031 C 90.488281 36.085938 90.957031 35.566406 91.398438 35.023438 C 91.839844 34.480469 92.257812 33.917969 92.644531 33.332031 C 93.035156 32.75 93.394531 32.148438 93.722656 31.53125 C 94.050781 30.910156 94.351562 30.277344 94.617188 29.628906 C 94.882812 28.980469 95.121094 28.320312 95.324219 27.648438 C 95.523438 26.976562 95.695312 26.296875 95.832031 25.609375 C 95.96875 24.921875 96.070312 24.226562 96.136719 23.527344 C 96.207031 22.832031 96.242188 22.128906 96.242188 21.429688 C 96.242188 20.726562 96.207031 20.027344 96.136719 19.328125 C 96.070312 18.628906 95.96875 17.9375 95.832031 17.25 C 95.695312 16.558594 95.523438 15.878906 95.324219 15.207031 C 95.121094 14.535156 94.882812 13.875 94.617188 13.226562 C 94.351562 12.578125 94.050781 11.945312 93.722656 11.328125 C 93.394531 10.707031 93.035156 10.105469 92.644531 9.523438 C 92.257812 8.941406 91.839844 8.375 91.398438 7.835938 C 90.957031 7.292969 90.488281 6.773438 89.992188 6.277344 C 89.5 5.78125 88.980469 5.308594 88.441406 4.863281 C 87.902344 4.417969 87.339844 4 86.757812 3.613281 C 86.179688 3.222656 85.578125 2.859375 84.964844 2.53125 C 84.347656 2.199219 83.714844 1.898438 83.070312 1.632812 C 82.425781 1.363281 81.769531 1.125 81.097656 0.921875 C 80.429688 0.71875 79.753906 0.546875 79.070312 0.410156 C 78.382812 0.273438 77.691406 0.171875 76.996094 0.101562 C 76.300781 0.0351562 75.605469 0 74.90625 0 Z M 74.90625 107.144531 C 74.207031 107.144531 73.511719 107.175781 72.816406 107.246094 C 72.121094 107.316406 71.429688 107.417969 70.742188 107.554688 C 70.058594 107.691406 69.382812 107.863281 68.714844 108.066406 C 68.042969 108.269531 67.386719 108.503906 66.742188 108.773438 C 66.097656 109.042969 65.464844 109.34375 64.847656 109.671875 C 64.234375 110.003906 63.632812 110.363281 63.054688 110.753906 C 62.472656 111.144531 61.910156 111.5625 61.371094 112.007812 C 60.832031 112.453125 60.3125 112.921875 59.820312 113.417969 C 59.324219 113.914062 58.855469 114.433594 58.414062 114.976562 C 57.972656 115.519531 57.554688 116.082031 57.167969 116.667969 C 56.777344 117.25 56.417969 117.851562 56.089844 118.46875 C 55.761719 119.089844 55.460938 119.722656 55.195312 120.371094 C 54.929688 121.019531 54.691406 121.679688 54.488281 122.351562 C 54.285156 123.023438 54.117188 123.703125 53.980469 124.390625 C 53.84375 125.078125 53.742188 125.773438 53.675781 126.472656 C 53.605469 127.167969 53.570312 127.871094 53.570312 128.570312 C 53.570312 129.273438 53.605469 129.972656 53.675781 130.671875 C 53.742188 131.371094 53.84375 132.0625 53.980469 132.75 C 54.117188 133.441406 54.285156 134.121094 54.488281 134.792969 C 54.691406 135.464844 54.929688 136.125 55.195312 136.773438 C 55.460938 137.421875 55.761719 138.054688 56.089844 138.671875 C 56.417969 139.292969 56.777344 139.894531 57.167969 140.476562 C 57.554688 141.058594 57.972656 141.625 58.414062 142.164062 C 58.855469 142.707031 59.324219 143.226562 59.820312 143.722656 C 60.3125 144.21875 60.832031 144.691406 61.371094 145.136719 C 61.910156 145.582031 62.472656 146 63.054688 146.386719 C 63.632812 146.777344 64.234375 147.140625 64.847656 147.46875 C 65.464844 147.800781 66.097656 148.101562 66.742188 148.367188 C 67.386719 148.636719 68.042969 148.875 68.714844 149.078125 C 69.382812 149.28125 70.058594 149.453125 70.742188 149.589844 C 71.429688 149.726562 72.121094 149.828125 72.816406 149.898438 C 73.511719 149.964844 74.207031 150 74.90625 150 C 75.605469 150 76.300781 149.964844 76.996094 149.898438 C 77.691406 149.828125 78.382812 149.726562 79.070312 149.589844 C 79.753906 149.453125 80.429688 149.28125 81.097656 149.078125 C 81.769531 148.875 82.425781 148.636719 83.070312 148.367188 C 83.714844 148.101562 84.347656 147.800781 84.964844 147.46875 C 85.578125 147.140625 86.179688 146.777344 86.757812 146.386719 C 87.339844 146 87.902344 145.582031 88.441406 145.136719 C 88.980469 144.691406 89.5 144.21875 89.992188 143.722656 C 90.488281 143.226562 90.957031 142.707031 91.398438 142.164062 C 91.839844 141.625 92.257812 141.058594 92.644531 140.476562 C 93.035156 139.894531 93.394531 139.292969 93.722656 138.671875 C 94.050781 138.054688 94.351562 137.421875 94.617188 136.773438 C 94.882812 136.125 95.121094 135.464844 95.324219 134.792969 C 95.523438 134.121094 95.695312 133.441406 95.832031 132.75 C 95.96875 132.0625 96.070312 131.371094 96.136719 130.671875 C 96.207031 129.972656 96.242188 129.273438 96.242188 128.570312 C 96.242188 127.871094 96.207031 127.167969 96.136719 126.472656 C 96.070312 125.773438 95.96875 125.078125 95.832031 124.390625 C 95.695312 123.703125 95.523438 123.023438 95.324219 122.351562 C 95.121094 121.679688 94.882812 121.019531 94.617188 120.371094 C 94.351562 119.722656 94.050781 119.089844 93.722656 118.46875 C 93.394531 117.851562 93.035156 117.25 92.644531 116.667969 C 92.257812 116.082031 91.839844 115.519531 91.398438 114.976562 C 90.957031 114.433594 90.488281 113.914062 89.992188 113.417969 C 89.5 112.921875 88.980469 112.453125 88.441406 112.007812 C 87.902344 111.5625 87.339844 111.144531 86.757812 110.753906 C 86.179688 110.363281 85.578125 110.003906 84.964844 109.671875 C 84.347656 109.34375 83.714844 109.042969 83.070312 108.773438 C 82.425781 108.503906 81.769531 108.269531 81.097656 108.066406 C 80.429688 107.863281 79.753906 107.691406 79.070312 107.554688 C 78.382812 107.417969 77.691406 107.316406 76.996094 107.246094 C 76.300781 107.175781 75.605469 107.144531 74.90625 107.144531 Z M 74.90625 107.144531 " fill-opacity="1" fill-rule="nonzero"/></g><g clip-path="url(#d0f1ae5178)"><path fill="#d9d9d9" d="M 149.773438 75 C 149.773438 75.703125 149.738281 76.402344 149.667969 77.101562 C 149.601562 77.796875 149.5 78.492188 149.363281 79.179688 C 149.226562 79.867188 149.054688 80.546875 148.855469 81.21875 C 148.652344 81.890625 148.414062 82.550781 148.148438 83.199219 C 147.882812 83.847656 147.582031 84.480469 147.253906 85.101562 C 146.925781 85.71875 146.566406 86.320312 146.175781 86.90625 C 145.789062 87.488281 145.371094 88.050781 144.929688 88.59375 C 144.488281 89.136719 144.019531 89.65625 143.523438 90.152344 C 143.03125 90.648438 142.511719 91.121094 141.972656 91.566406 C 141.433594 92.007812 140.871094 92.425781 140.289062 92.816406 C 139.710938 93.207031 139.109375 93.566406 138.496094 93.898438 C 137.878906 94.230469 137.246094 94.527344 136.601562 94.796875 C 135.957031 95.066406 135.300781 95.300781 134.628906 95.503906 C 133.960938 95.710938 133.285156 95.878906 132.601562 96.015625 C 131.914062 96.152344 131.222656 96.257812 130.527344 96.324219 C 129.832031 96.394531 129.136719 96.429688 128.4375 96.429688 C 127.738281 96.429688 127.042969 96.394531 126.347656 96.324219 C 125.652344 96.257812 124.960938 96.152344 124.273438 96.015625 C 123.589844 95.878906 122.914062 95.710938 122.246094 95.503906 C 121.574219 95.300781 120.917969 95.066406 120.273438 94.796875 C 119.628906 94.527344 118.996094 94.230469 118.378906 93.898438 C 117.765625 93.566406 117.164062 93.207031 116.585938 92.816406 C 116.003906 92.425781 115.441406 92.007812 114.902344 91.566406 C 114.363281 91.121094 113.84375 90.648438 113.351562 90.152344 C 112.855469 89.65625 112.386719 89.136719 111.945312 88.59375 C 111.503906 88.050781 111.085938 87.488281 110.699219 86.90625 C 110.308594 86.320312 109.949219 85.71875 109.621094 85.101562 C 109.292969 84.480469 108.992188 83.847656 108.726562 83.199219 C 108.460938 82.550781 108.222656 81.890625 108.019531 81.21875 C 107.816406 80.546875 107.648438 79.867188 107.511719 79.179688 C 107.375 78.492188 107.273438 77.796875 107.207031 77.101562 C 107.136719 76.402344 107.101562 75.703125 107.101562 75 C 107.101562 74.296875 107.136719 73.597656 107.207031 72.898438 C 107.273438 72.203125 107.375 71.507812 107.511719 70.820312 C 107.648438 70.132812 107.816406 69.453125 108.019531 68.78125 C 108.222656 68.109375 108.460938 67.449219 108.726562 66.800781 C 108.992188 66.152344 109.292969 65.515625 109.621094 64.898438 C 109.949219 64.28125 110.308594 63.679688 110.699219 63.09375 C 111.085938 62.511719 111.503906 61.949219 111.945312 61.40625 C 112.386719 60.863281 112.855469 60.34375 113.351562 59.847656 C 113.84375 59.351562 114.363281 58.878906 114.902344 58.433594 C 115.441406 57.992188 116.003906 57.574219 116.585938 57.183594 C 117.164062 56.792969 117.765625 56.433594 118.378906 56.101562 C 118.996094 55.769531 119.628906 55.472656 120.273438 55.203125 C 120.917969 54.933594 121.574219 54.699219 122.246094 54.492188 C 122.914062 54.289062 123.589844 54.121094 124.273438 53.984375 C 124.960938 53.847656 125.652344 53.742188 126.347656 53.675781 C 127.042969 53.605469 127.738281 53.570312 128.4375 53.570312 C 129.136719 53.570312 129.832031 53.605469 130.527344 53.675781 C 131.222656 53.742188 131.914062 53.847656 132.601562 53.984375 C 133.285156 54.121094 133.960938 54.289062 134.628906 54.492188 C 135.300781 54.699219 135.957031 54.933594 136.601562 55.203125 C 137.246094 55.472656 137.878906 55.769531 138.496094 56.101562 C 139.109375 56.433594 139.710938 56.792969 140.289062 57.183594 C 140.871094 57.574219 141.433594 57.992188 141.972656 58.433594 C 142.511719 58.878906 143.03125 59.351562 143.523438 59.847656 C 144.019531 60.34375 144.488281 60.863281 144.929688 61.40625 C 145.371094 61.949219 145.789062 62.511719 146.175781 63.09375 C 146.566406 63.679688 146.925781 64.28125 147.253906 64.898438 C 147.582031 65.515625 147.882812 66.152344 148.148438 66.800781 C 148.414062 67.449219 148.652344 68.109375 148.855469 68.78125 C 149.054688 69.453125 149.226562 70.132812 149.363281 70.820312 C 149.5 71.507812 149.601562 72.203125 149.667969 72.898438 C 149.738281 73.597656 149.773438 74.296875 149.773438 75 Z M 128.4375 0 C 127.738281 0 127.042969 0.0351562 126.347656 0.101562 C 125.652344 0.171875 124.960938 0.273438 124.273438 0.410156 C 123.589844 0.546875 122.914062 0.71875 122.246094 0.921875 C 121.574219 1.125 120.917969 1.363281 120.273438 1.632812 C 119.628906 1.898438 118.996094 2.199219 118.378906 2.53125 C 117.765625 2.859375 117.164062 3.222656 116.585938 3.613281 C 116.003906 4 115.441406 4.417969 114.902344 4.863281 C 114.363281 5.308594 113.84375 5.78125 113.351562 6.277344 C 112.855469 6.773438 112.386719 7.292969 111.945312 7.835938 C 111.503906 8.375 111.085938 8.941406 110.699219 9.523438 C 110.308594 10.105469 109.949219 10.707031 109.621094 11.328125 C 109.292969 11.945312 108.992188 12.578125 108.726562 13.226562 C 108.460938 13.875 108.222656 14.535156 108.019531 15.207031 C 107.816406 15.878906 107.648438 16.558594 107.511719 17.25 C 107.375 17.9375 107.273438 18.628906 107.207031 19.328125 C 107.136719 20.027344 107.101562 20.726562 107.101562 21.429688 C 107.101562 22.128906 107.136719 22.832031 107.207031 23.527344 C 107.273438 24.226562 107.375 24.921875 107.511719 25.609375 C 107.648438 26.296875 107.816406 26.976562 108.019531 27.648438 C 108.222656 28.320312 108.460938 28.980469 108.726562 29.628906 C 108.992188 30.277344 109.292969 30.910156 109.621094 31.53125 C 109.949219 32.148438 110.308594 32.75 110.699219 33.332031 C 111.085938 33.917969 111.503906 34.480469 111.945312 35.023438 C 112.386719 35.566406 112.855469 36.085938 113.351562 36.582031 C 113.84375 37.078125 114.363281 37.546875 114.902344 37.992188 C 115.441406 38.4375 116.003906 38.855469 116.585938 39.246094 C 117.164062 39.636719 117.765625 39.996094 118.378906 40.328125 C 118.996094 40.65625 119.628906 40.957031 120.273438 41.226562 C 120.917969 41.496094 121.574219 41.730469 122.246094 41.933594 C 122.914062 42.136719 123.589844 42.308594 124.273438 42.445312 C 124.960938 42.582031 125.652344 42.683594 126.347656 42.753906 C 127.042969 42.824219 127.738281 42.855469 128.4375 42.855469 C 129.136719 42.855469 129.832031 42.824219 130.527344 42.753906 C 131.222656 42.683594 131.914062 42.582031 132.601562 42.445312 C 133.285156 42.308594 133.960938 42.136719 134.628906 41.933594 C 135.300781 41.730469 135.957031 41.496094 136.601562 41.226562 C 137.246094 40.957031 137.878906 40.65625 138.496094 40.328125 C 139.109375 39.996094 139.710938 39.636719 140.289062 39.246094 C 140.871094 38.855469 141.433594 38.4375 141.972656 37.992188 C 142.511719 37.546875 143.03125 37.078125 143.523438 36.582031 C 144.019531 36.085938 144.488281 35.566406 144.929688 35.023438 C 145.371094 34.480469 145.789062 33.917969 146.175781 33.332031 C 146.566406 32.75 146.925781 32.148438 147.253906 31.53125 C 147.582031 30.910156 147.882812 30.277344 148.148438 29.628906 C 148.414062 28.980469 148.652344 28.320312 148.855469 27.648438 C 149.054688 26.976562 149.226562 26.296875 149.363281 25.609375 C 149.5 24.921875 149.601562 24.226562 149.667969 23.527344 C 149.738281 22.832031 149.773438 22.128906 149.773438 21.429688 C 149.773438 20.726562 149.738281 20.027344 149.667969 19.328125 C 149.601562 18.628906 149.5 17.9375 149.363281 17.25 C 149.226562 16.558594 149.054688 15.878906 148.855469 15.207031 C 148.652344 14.535156 148.414062 13.875 148.148438 13.226562 C 147.882812 12.578125 147.582031 11.945312 147.253906 11.328125 C 146.925781 10.707031 146.566406 10.105469 146.175781 9.523438 C 145.789062 8.941406 145.371094 8.375 144.929688 7.835938 C 144.488281 7.292969 144.019531 6.773438 143.523438 6.277344 C 143.03125 5.78125 142.511719 5.308594 141.972656 4.863281 C 141.433594 4.417969 140.871094 4 140.289062 3.613281 C 139.710938 3.222656 139.109375 2.859375 138.496094 2.53125 C 137.878906 2.199219 137.246094 1.898438 136.601562 1.632812 C 135.957031 1.363281 135.300781 1.125 134.628906 0.921875 C 133.960938 0.71875 133.285156 0.546875 132.601562 0.410156 C 131.914062 0.273438 131.222656 0.171875 130.527344 0.101562 C 129.832031 0.0351562 129.136719 0 128.4375 0 Z M 128.4375 107.144531 C 127.738281 107.144531 127.042969 107.175781 126.347656 107.246094 C 125.652344 107.316406 124.960938 107.417969 124.273438 107.554688 C 123.589844 107.691406 122.914062 107.863281 122.246094 108.066406 C 121.574219 108.269531 120.917969 108.503906 120.273438 108.773438 C 119.628906 109.042969 118.996094 109.34375 118.378906 109.671875 C 117.765625 110.003906 117.164062 110.363281 116.585938 110.753906 C 116.003906 111.144531 115.441406 111.5625 114.902344 112.007812 C 114.363281 112.453125 113.84375 112.921875 113.351562 113.417969 C 112.855469 113.914062 112.386719 114.433594 111.945312 114.976562 C 111.503906 115.519531 111.085938 116.082031 110.699219 116.667969 C 110.308594 117.25 109.949219 117.851562 109.621094 118.46875 C 109.292969 119.089844 108.992188 119.722656 108.726562 120.371094 C 108.460938 121.019531 108.222656 121.679688 108.019531 122.351562 C 107.816406 123.023438 107.648438 123.703125 107.511719 124.390625 C 107.375 125.078125 107.273438 125.773438 107.207031 126.472656 C 107.136719 127.167969 107.101562 127.871094 107.101562 128.570312 C 107.101562 129.273438 107.136719 129.972656 107.207031 130.671875 C 107.273438 131.371094 107.375 132.0625 107.511719 132.75 C 107.648438 133.441406 107.816406 134.121094 108.019531 134.792969 C 108.222656 135.464844 108.460938 136.125 108.726562 136.773438 C 108.992188 137.421875 109.292969 138.054688 109.621094 138.671875 C 109.949219 139.292969 110.308594 139.894531 110.699219 140.476562 C 111.085938 141.058594 111.503906 141.625 111.945312 142.164062 C 112.386719 142.707031 112.855469 143.226562 113.351562 143.722656 C 113.84375 144.21875 114.363281 144.691406 114.902344 145.136719 C 115.441406 145.582031 116.003906 146 116.585938 146.386719 C 117.164062 146.777344 117.765625 147.140625 118.378906 147.46875 C 118.996094 147.800781 119.628906 148.101562 120.273438 148.367188 C 120.917969 148.636719 121.574219 148.875 122.246094 149.078125 C 122.914062 149.28125 123.589844 149.453125 124.273438 149.589844 C 124.960938 149.726562 125.652344 149.828125 126.347656 149.898438 C 127.042969 149.964844 127.738281 150 128.4375 150 C 129.136719 150 129.832031 149.964844 130.527344 149.898438 C 131.222656 149.828125 131.914062 149.726562 132.601562 149.589844 C 133.285156 149.453125 133.960938 149.28125 134.628906 149.078125 C 135.300781 148.875 135.957031 148.636719 136.601562 148.367188 C 137.246094 148.101562 137.878906 147.800781 138.496094 147.46875 C 139.109375 147.140625 139.710938 146.777344 140.289062 146.386719 C 140.871094 146 141.433594 145.582031 141.972656 145.136719 C 142.511719 144.691406 143.03125 144.21875 143.523438 143.722656 C 144.019531 143.226562 144.488281 142.707031 144.929688 142.164062 C 145.371094 141.625 145.789062 141.058594 146.175781 140.476562 C 146.566406 139.894531 146.925781 139.292969 147.253906 138.671875 C 147.582031 138.054688 147.882812 137.421875 148.148438 136.773438 C 148.414062 136.125 148.652344 135.464844 148.855469 134.792969 C 149.054688 134.121094 149.226562 133.441406 149.363281 132.75 C 149.5 132.0625 149.601562 131.371094 149.667969 130.671875 C 149.738281 129.972656 149.773438 129.273438 149.773438 128.570312 C 149.773438 127.871094 149.738281 127.167969 149.667969 126.472656 C 149.601562 125.773438 149.5 125.078125 149.363281 124.390625 C 149.226562 123.703125 149.054688 123.023438 148.855469 122.351562 C 148.652344 121.679688 148.414062 121.019531 148.148438 120.371094 C 147.882812 119.722656 147.582031 119.089844 147.253906 118.46875 C 146.925781 117.851562 146.566406 117.25 146.175781 116.667969 C 145.789062 116.082031 145.371094 115.519531 144.929688 114.976562 C 144.488281 114.433594 144.019531 113.914062 143.523438 113.417969 C 143.03125 112.921875 142.511719 112.453125 141.972656 112.007812 C 141.433594 111.5625 140.871094 111.144531 140.289062 110.753906 C 139.710938 110.363281 139.109375 110.003906 138.496094 109.671875 C 137.878906 109.34375 137.246094 109.042969 136.601562 108.773438 C 135.957031 108.503906 135.300781 108.269531 134.628906 108.066406 C 133.960938 107.863281 133.285156 107.691406 132.601562 107.554688 C 131.914062 107.417969 131.222656 107.316406 130.527344 107.246094 C 129.832031 107.175781 129.136719 107.144531 128.4375 107.144531 Z M 128.4375 107.144531 " fill-opacity="1" fill-rule="nonzero"/></g></svg>