<svg xmlns="http://www.w3.org/2000/svg" xmlns:xlink="http://www.w3.org/1999/xlink" width="200" zoomAndPan="magnify" viewBox="0 0 150 149.999998" height="200" preserveAspectRatio="xMidYMid meet" version="1.0"><defs><clipPath id="09681cec74"><path d="M 11.601562 11.714844 L 138.351562 11.714844 L 138.351562 138.464844 L 11.601562 138.464844 Z M 11.601562 11.714844 " clip-rule="nonzero"/></clipPath></defs><g clip-path="url(#09681cec74)"><path fill="#d9d9d9" d="M 119.746094 29.046875 C 107.78125 17.917969 91.882812 11.789062 74.980469 11.789062 C 58.078125 11.789062 42.179688 17.917969 30.214844 29.046875 C 18.210938 40.210938 11.601562 55.066406 11.601562 70.878906 C 11.601562 88.25 19.699219 104.585938 33.863281 115.84375 L 33.863281 136.464844 C 33.863281 137.128906 34.203125 137.742188 34.765625 138.09375 C 35.074219 138.285156 35.425781 138.382812 35.777344 138.382812 C 36.066406 138.382812 36.355469 138.320312 36.625 138.1875 L 57.785156 127.761719 C 63.355469 129.222656 69.136719 129.964844 74.980469 129.964844 C 91.882812 129.964844 107.78125 123.835938 119.746094 112.707031 C 131.75 101.542969 138.359375 86.6875 138.359375 70.878906 C 138.359375 55.066406 131.75 40.210938 119.746094 29.046875 Z M 114.125 55.867188 L 82.285156 90.917969 C 82.167969 91.046875 82.003906 91.121094 81.828125 91.125 C 81.824219 91.125 81.820312 91.125 81.8125 91.125 C 81.644531 91.125 81.480469 91.058594 81.363281 90.9375 L 64.996094 74.539062 L 36.523438 90.0625 C 36.242188 90.214844 35.894531 90.140625 35.707031 89.886719 C 35.515625 89.628906 35.542969 89.273438 35.765625 89.050781 L 68.195312 56.558594 C 68.445312 56.3125 68.847656 56.3125 69.097656 56.558594 L 84.953125 72.445312 L 113.316406 54.894531 C 113.589844 54.726562 113.941406 54.785156 114.144531 55.027344 C 114.347656 55.273438 114.339844 55.632812 114.125 55.867188 Z M 114.125 55.867188 " fill-opacity="1" fill-rule="nonzero"/></g></svg>