<svg xmlns="http://www.w3.org/2000/svg" xmlns:xlink="http://www.w3.org/1999/xlink" width="200" zoomAndPan="magnify" viewBox="0 0 150 149.999998" height="200" preserveAspectRatio="xMidYMid meet" version="1.0"><defs><clipPath id="72306f0b69"><path d="M 6.515625 0 L 145 0 L 145 150 L 6.515625 150 Z M 6.515625 0 " clip-rule="nonzero"/></clipPath></defs><g clip-path="url(#72306f0b69)"><path fill="#d9d9d9" d="M 92.589844 132.65625 C 92.015625 142.457031 85.105469 149.953125 75.316406 149.953125 C 65.527344 149.953125 58.042969 142.457031 58.042969 132.65625 Z M 141.53125 115.9375 C 140.378906 115.363281 139.800781 114.78125 138.648438 114.78125 C 133.46875 112.476562 129.4375 106.710938 127.132812 102.101562 C 123.105469 95.757812 121.375 88.261719 121.375 80.765625 L 121.375 57.703125 C 121.375 34.0625 103.527344 15.035156 81.070312 12.15625 L 81.070312 5.8125 C 81.070312 2.351562 78.769531 0.046875 75.316406 0.046875 C 71.859375 0.046875 69.554688 2.351562 69.554688 5.8125 L 69.554688 12.15625 C 47.097656 15.039062 29.25 34.640625 29.25 57.703125 L 29.25 80.765625 C 29.25 87.683594 27.523438 94.601562 24.644531 100.367188 C 22.339844 104.980469 19.460938 109.015625 15.433594 112.476562 C 13.703125 114.203125 11.402344 114.78125 9.675781 115.933594 C 7.949219 116.511719 6.796875 118.242188 6.796875 120.546875 C 6.796875 124.007812 9.097656 126.3125 12.550781 126.3125 L 139.226562 126.3125 C 142.679688 126.3125 144.980469 124.007812 144.980469 120.546875 C 144.410156 119.398438 143.257812 117.089844 141.53125 115.9375 Z M 141.53125 115.9375 " fill-opacity="1" fill-rule="evenodd"/></g></svg>