<svg xmlns="http://www.w3.org/2000/svg" xmlns:xlink="http://www.w3.org/1999/xlink" width="200" zoomAndPan="magnify" viewBox="0 0 150 149.999998" height="200" preserveAspectRatio="xMidYMid meet" version="1.0"><defs><clipPath id="ad448991b7"><path d="M 11.144531 11.144531 L 137.894531 11.144531 L 137.894531 137.894531 L 11.144531 137.894531 Z M 11.144531 11.144531 " clip-rule="nonzero"/></clipPath></defs><g clip-path="url(#ad448991b7)"><path fill="#a6a6a6" d="M 92.613281 103.832031 L 123.660156 134.863281 C 126.734375 137.9375 131.722656 137.9375 134.796875 134.863281 C 137.871094 131.789062 137.871094 126.796875 134.796875 123.722656 L 103.773438 92.710938 C 110.011719 84.222656 113.703125 73.738281 113.703125 62.398438 C 113.703125 34.113281 90.734375 11.144531 62.449219 11.144531 C 34.160156 11.144531 11.191406 34.113281 11.191406 62.398438 C 11.191406 90.6875 34.160156 113.65625 62.449219 113.65625 C 73.71875 113.65625 84.148438 110.007812 92.613281 103.832031 Z M 62.449219 26.898438 C 82.042969 26.898438 97.949219 42.804688 97.949219 62.398438 C 97.949219 81.992188 82.042969 97.902344 62.449219 97.902344 C 42.851562 97.902344 26.945312 81.992188 26.945312 62.398438 C 26.945312 42.804688 42.851562 26.898438 62.449219 26.898438 Z M 62.449219 26.898438 " fill-opacity="1" fill-rule="evenodd"/></g></svg>