<svg xmlns="http://www.w3.org/2000/svg" xmlns:xlink="http://www.w3.org/1999/xlink" width="200" zoomAndPan="magnify" viewBox="0 0 150 149.999998" height="200" preserveAspectRatio="xMidYMid meet" version="1.0"><defs><clipPath id="e4aca46d9b"><path d="M 8.246094 17.125 L 137.246094 17.125 L 137.246094 125.875 L 8.246094 125.875 Z M 8.246094 17.125 " clip-rule="nonzero"/></clipPath><clipPath id="31c237aca3"><path d="M 26.972656 17.125 L 118.519531 17.125 C 128.863281 17.125 137.246094 25.5 137.246094 35.828125 L 137.246094 107.175781 C 137.246094 117.503906 128.863281 125.875 118.519531 125.875 L 26.972656 125.875 C 16.632812 125.875 8.246094 117.503906 8.246094 107.175781 L 8.246094 35.828125 C 8.246094 25.5 16.632812 17.125 26.972656 17.125 " clip-rule="nonzero"/></clipPath><clipPath id="f9a717e8c9"><path d="M 56.691406 53.570312 L 90.9375 53.570312 L 90.9375 91 L 56.691406 91 Z M 56.691406 53.570312 " clip-rule="nonzero"/></clipPath><clipPath id="d682681b0c"><path d="M 88.730469 69.722656 L 61.273438 54.332031 C 60.320312 53.800781 59.15625 53.808594 58.214844 54.363281 C 57.273438 54.914062 56.691406 55.925781 56.691406 57.015625 L 56.691406 87.558594 C 56.691406 88.652344 57.273438 89.660156 58.214844 90.214844 C 59.15625 90.765625 60.320312 90.777344 61.273438 90.242188 L 88.730469 74.855469 C 89.660156 74.335938 90.234375 73.351562 90.234375 72.289062 C 90.234375 71.222656 89.660156 70.242188 88.730469 69.722656 " clip-rule="nonzero"/></clipPath></defs><g clip-path="url(#e4aca46d9b)"><g clip-path="url(#31c237aca3)"><path stroke-linecap="butt" transform="matrix(0.749047, 0, 0, 0.748065, 8.247348, 17.126524)" fill="none" stroke-linejoin="miter" d="M 24.998832 -0.0020371 L 147.216573 -0.0020371 C 161.02578 -0.0020371 172.217079 11.193509 172.217079 24.999957 L 172.217079 120.376192 C 172.217079 134.18264 161.02578 145.372964 147.216573 145.372964 L 24.998832 145.372964 C 11.19484 145.372964 -0.00167388 134.18264 -0.00167388 120.376192 L -0.00167388 24.999957 C -0.00167388 11.193509 11.19484 -0.0020371 24.998832 -0.0020371 " stroke="#d9d9d9" stroke-width="20" stroke-opacity="1" stroke-miterlimit="4"/></g></g><g clip-path="url(#f9a717e8c9)"><g clip-path="url(#d682681b0c)"><path fill="#d9d9d9" d="M 56.691406 92.808594 L 56.691406 51.429688 L 93.078125 51.429688 L 93.078125 92.808594 Z M 56.691406 92.808594 " fill-opacity="1" fill-rule="nonzero"/></g></g><path stroke-linecap="round" transform="matrix(0.752613, 0, 0, 0.75, 34.639427, 142.499994)" fill="none" stroke-linejoin="miter" d="M 4.999802 5.000009 L 102.628385 5.000009 " stroke="#d9d9d9" stroke-width="10" stroke-opacity="1" stroke-miterlimit="4"/></svg>